<mxfile host="app.diagrams.net" modified="2023-04-05T13:42:54.923Z" agent="Mozilla/5.0 (Windows NT 10.0; Win64; x64) AppleWebKit/537.36 (KHTML, like Gecko) Chrome/111.0.0.0 Safari/537.36 Edg/111.0.1661.62" etag="wn_rGL261wPrwrkq9jfj" version="21.1.4" type="device">
  <diagram id="zEhRZmaXSJljys-UizYp" name="Trang-1">
    <mxGraphModel dx="1050" dy="541" grid="1" gridSize="10" guides="1" tooltips="1" connect="1" arrows="1" fold="1" page="1" pageScale="1" pageWidth="827" pageHeight="1169" math="0" shadow="0">
      <root>
        <mxCell id="0" />
        <mxCell id="1" parent="0" />
        <mxCell id="OUo1SMJ5GrXYUIMeT2iM-1" value="Begin&lt;br&gt;&amp;nbsp; &amp;nbsp;Input a,b,c&lt;br&gt;&amp;nbsp; &amp;nbsp; &amp;nbsp; If a &amp;gt; b then&lt;br&gt;&amp;nbsp; &amp;nbsp; &amp;nbsp; &amp;nbsp; &amp;nbsp;If a &amp;gt; c then&lt;br&gt;&amp;nbsp; &amp;nbsp; &amp;nbsp; &amp;nbsp; &amp;nbsp; &amp;nbsp; &amp;nbsp;print a&lt;br&gt;&amp;nbsp; &amp;nbsp; &amp;nbsp; &amp;nbsp; &amp;nbsp;Else &lt;br&gt;&amp;nbsp; &amp;nbsp; &amp;nbsp; &amp;nbsp; &amp;nbsp; &amp;nbsp; &amp;nbsp;print c&lt;br&gt;&amp;nbsp; &amp;nbsp; &amp;nbsp; &amp;nbsp; &amp;nbsp;End If&lt;br&gt;&amp;nbsp; &amp;nbsp; &amp;nbsp; Else&lt;br&gt;&amp;nbsp; &amp;nbsp; &amp;nbsp; &amp;nbsp; &amp;nbsp;If b &amp;gt; c then&lt;br&gt;&amp;nbsp; &amp;nbsp; &amp;nbsp; &amp;nbsp; &amp;nbsp; &amp;nbsp; &amp;nbsp;print b&lt;br&gt;&amp;nbsp; &amp;nbsp; &amp;nbsp; &amp;nbsp; &amp;nbsp;Else&lt;br&gt;&amp;nbsp; &amp;nbsp; &amp;nbsp; &amp;nbsp; &amp;nbsp; &amp;nbsp; &amp;nbsp;print c&lt;br&gt;&amp;nbsp; &amp;nbsp; &amp;nbsp; End If&lt;br&gt;&amp;nbsp; &amp;nbsp; End" style="text;html=1;strokeColor=none;fillColor=none;align=left;verticalAlign=middle;whiteSpace=wrap;rounded=0;" vertex="1" parent="1">
          <mxGeometry x="30" y="40" width="380" height="190" as="geometry" />
        </mxCell>
        <mxCell id="OUo1SMJ5GrXYUIMeT2iM-12" value="" style="edgeStyle=orthogonalEdgeStyle;rounded=0;orthogonalLoop=1;jettySize=auto;html=1;" edge="1" parent="1" source="OUo1SMJ5GrXYUIMeT2iM-2" target="OUo1SMJ5GrXYUIMeT2iM-3">
          <mxGeometry relative="1" as="geometry" />
        </mxCell>
        <mxCell id="OUo1SMJ5GrXYUIMeT2iM-2" value="Begin" style="ellipse;whiteSpace=wrap;html=1;" vertex="1" parent="1">
          <mxGeometry x="280" y="10" width="110" height="60" as="geometry" />
        </mxCell>
        <mxCell id="OUo1SMJ5GrXYUIMeT2iM-13" value="" style="edgeStyle=orthogonalEdgeStyle;rounded=0;orthogonalLoop=1;jettySize=auto;html=1;" edge="1" parent="1" source="OUo1SMJ5GrXYUIMeT2iM-3" target="OUo1SMJ5GrXYUIMeT2iM-4">
          <mxGeometry relative="1" as="geometry" />
        </mxCell>
        <mxCell id="OUo1SMJ5GrXYUIMeT2iM-3" value="Input a,b,c" style="shape=parallelogram;perimeter=parallelogramPerimeter;whiteSpace=wrap;html=1;fixedSize=1;" vertex="1" parent="1">
          <mxGeometry x="275" y="100" width="120" height="60" as="geometry" />
        </mxCell>
        <mxCell id="OUo1SMJ5GrXYUIMeT2iM-14" value="" style="edgeStyle=orthogonalEdgeStyle;rounded=0;orthogonalLoop=1;jettySize=auto;html=1;" edge="1" parent="1" source="OUo1SMJ5GrXYUIMeT2iM-4" target="OUo1SMJ5GrXYUIMeT2iM-5">
          <mxGeometry relative="1" as="geometry" />
        </mxCell>
        <mxCell id="OUo1SMJ5GrXYUIMeT2iM-17" value="" style="edgeStyle=orthogonalEdgeStyle;rounded=0;orthogonalLoop=1;jettySize=auto;html=1;" edge="1" parent="1" source="OUo1SMJ5GrXYUIMeT2iM-4" target="OUo1SMJ5GrXYUIMeT2iM-6">
          <mxGeometry relative="1" as="geometry" />
        </mxCell>
        <mxCell id="OUo1SMJ5GrXYUIMeT2iM-4" value="a &amp;gt; b" style="rhombus;whiteSpace=wrap;html=1;" vertex="1" parent="1">
          <mxGeometry x="295" y="190" width="80" height="80" as="geometry" />
        </mxCell>
        <mxCell id="OUo1SMJ5GrXYUIMeT2iM-15" value="" style="edgeStyle=orthogonalEdgeStyle;rounded=0;orthogonalLoop=1;jettySize=auto;html=1;" edge="1" parent="1" source="OUo1SMJ5GrXYUIMeT2iM-5" target="OUo1SMJ5GrXYUIMeT2iM-9">
          <mxGeometry relative="1" as="geometry" />
        </mxCell>
        <mxCell id="OUo1SMJ5GrXYUIMeT2iM-16" value="" style="edgeStyle=orthogonalEdgeStyle;rounded=0;orthogonalLoop=1;jettySize=auto;html=1;" edge="1" parent="1" source="OUo1SMJ5GrXYUIMeT2iM-5" target="OUo1SMJ5GrXYUIMeT2iM-8">
          <mxGeometry relative="1" as="geometry" />
        </mxCell>
        <mxCell id="OUo1SMJ5GrXYUIMeT2iM-5" value="b &amp;gt; c" style="rhombus;whiteSpace=wrap;html=1;" vertex="1" parent="1">
          <mxGeometry x="460" y="190" width="80" height="80" as="geometry" />
        </mxCell>
        <mxCell id="OUo1SMJ5GrXYUIMeT2iM-18" value="" style="edgeStyle=orthogonalEdgeStyle;rounded=0;orthogonalLoop=1;jettySize=auto;html=1;" edge="1" parent="1" source="OUo1SMJ5GrXYUIMeT2iM-6" target="OUo1SMJ5GrXYUIMeT2iM-11">
          <mxGeometry relative="1" as="geometry" />
        </mxCell>
        <mxCell id="OUo1SMJ5GrXYUIMeT2iM-19" value="" style="edgeStyle=orthogonalEdgeStyle;rounded=0;orthogonalLoop=1;jettySize=auto;html=1;" edge="1" parent="1" source="OUo1SMJ5GrXYUIMeT2iM-6" target="OUo1SMJ5GrXYUIMeT2iM-10">
          <mxGeometry relative="1" as="geometry" />
        </mxCell>
        <mxCell id="OUo1SMJ5GrXYUIMeT2iM-6" value="a &amp;gt; c" style="rhombus;whiteSpace=wrap;html=1;" vertex="1" parent="1">
          <mxGeometry x="295" y="310" width="80" height="80" as="geometry" />
        </mxCell>
        <mxCell id="OUo1SMJ5GrXYUIMeT2iM-29" style="edgeStyle=orthogonalEdgeStyle;rounded=0;orthogonalLoop=1;jettySize=auto;html=1;entryX=1.038;entryY=0.597;entryDx=0;entryDy=0;entryPerimeter=0;exitX=0.5;exitY=1;exitDx=0;exitDy=0;" edge="1" parent="1" source="OUo1SMJ5GrXYUIMeT2iM-8" target="OUo1SMJ5GrXYUIMeT2iM-26">
          <mxGeometry relative="1" as="geometry">
            <Array as="points">
              <mxPoint x="500" y="630" />
              <mxPoint x="400" y="630" />
            </Array>
          </mxGeometry>
        </mxCell>
        <mxCell id="OUo1SMJ5GrXYUIMeT2iM-8" value="print b" style="shape=parallelogram;perimeter=parallelogramPerimeter;whiteSpace=wrap;html=1;fixedSize=1;" vertex="1" parent="1">
          <mxGeometry x="440" y="320" width="120" height="60" as="geometry" />
        </mxCell>
        <mxCell id="OUo1SMJ5GrXYUIMeT2iM-30" style="edgeStyle=orthogonalEdgeStyle;rounded=0;orthogonalLoop=1;jettySize=auto;html=1;entryX=0.5;entryY=1;entryDx=0;entryDy=0;" edge="1" parent="1" source="OUo1SMJ5GrXYUIMeT2iM-9" target="OUo1SMJ5GrXYUIMeT2iM-26">
          <mxGeometry relative="1" as="geometry">
            <Array as="points">
              <mxPoint x="700" y="685" />
              <mxPoint x="335" y="685" />
            </Array>
          </mxGeometry>
        </mxCell>
        <mxCell id="OUo1SMJ5GrXYUIMeT2iM-9" value="print c" style="shape=parallelogram;perimeter=parallelogramPerimeter;whiteSpace=wrap;html=1;fixedSize=1;" vertex="1" parent="1">
          <mxGeometry x="630" y="200" width="120" height="60" as="geometry" />
        </mxCell>
        <mxCell id="OUo1SMJ5GrXYUIMeT2iM-28" value="" style="edgeStyle=orthogonalEdgeStyle;rounded=0;orthogonalLoop=1;jettySize=auto;html=1;" edge="1" parent="1" source="OUo1SMJ5GrXYUIMeT2iM-10" target="OUo1SMJ5GrXYUIMeT2iM-26">
          <mxGeometry relative="1" as="geometry" />
        </mxCell>
        <mxCell id="OUo1SMJ5GrXYUIMeT2iM-10" value="print a" style="shape=parallelogram;perimeter=parallelogramPerimeter;whiteSpace=wrap;html=1;fixedSize=1;" vertex="1" parent="1">
          <mxGeometry x="275" y="430" width="120" height="60" as="geometry" />
        </mxCell>
        <mxCell id="OUo1SMJ5GrXYUIMeT2iM-27" style="edgeStyle=orthogonalEdgeStyle;rounded=0;orthogonalLoop=1;jettySize=auto;html=1;entryX=0;entryY=0.5;entryDx=0;entryDy=0;" edge="1" parent="1" source="OUo1SMJ5GrXYUIMeT2iM-11" target="OUo1SMJ5GrXYUIMeT2iM-26">
          <mxGeometry relative="1" as="geometry">
            <Array as="points">
              <mxPoint x="140" y="625" />
            </Array>
          </mxGeometry>
        </mxCell>
        <mxCell id="OUo1SMJ5GrXYUIMeT2iM-11" value="print c" style="shape=parallelogram;perimeter=parallelogramPerimeter;whiteSpace=wrap;html=1;fixedSize=1;" vertex="1" parent="1">
          <mxGeometry x="90" y="320" width="120" height="60" as="geometry" />
        </mxCell>
        <mxCell id="OUo1SMJ5GrXYUIMeT2iM-20" value="No" style="text;html=1;strokeColor=none;fillColor=none;align=center;verticalAlign=middle;whiteSpace=wrap;rounded=0;" vertex="1" parent="1">
          <mxGeometry x="380" y="200" width="60" height="30" as="geometry" />
        </mxCell>
        <mxCell id="OUo1SMJ5GrXYUIMeT2iM-21" value="No" style="text;html=1;strokeColor=none;fillColor=none;align=center;verticalAlign=middle;whiteSpace=wrap;rounded=0;" vertex="1" parent="1">
          <mxGeometry x="550" y="200" width="60" height="30" as="geometry" />
        </mxCell>
        <mxCell id="OUo1SMJ5GrXYUIMeT2iM-22" value="No" style="text;html=1;strokeColor=none;fillColor=none;align=center;verticalAlign=middle;whiteSpace=wrap;rounded=0;" vertex="1" parent="1">
          <mxGeometry x="220" y="320" width="60" height="30" as="geometry" />
        </mxCell>
        <mxCell id="OUo1SMJ5GrXYUIMeT2iM-23" value="Yes" style="text;html=1;strokeColor=none;fillColor=none;align=center;verticalAlign=middle;whiteSpace=wrap;rounded=0;" vertex="1" parent="1">
          <mxGeometry x="335" y="270" width="60" height="30" as="geometry" />
        </mxCell>
        <mxCell id="OUo1SMJ5GrXYUIMeT2iM-24" value="Yes" style="text;html=1;strokeColor=none;fillColor=none;align=center;verticalAlign=middle;whiteSpace=wrap;rounded=0;" vertex="1" parent="1">
          <mxGeometry x="335" y="380" width="60" height="30" as="geometry" />
        </mxCell>
        <mxCell id="OUo1SMJ5GrXYUIMeT2iM-25" value="Yes" style="text;html=1;strokeColor=none;fillColor=none;align=center;verticalAlign=middle;whiteSpace=wrap;rounded=0;" vertex="1" parent="1">
          <mxGeometry x="490" y="280" width="60" height="30" as="geometry" />
        </mxCell>
        <mxCell id="OUo1SMJ5GrXYUIMeT2iM-26" value="End" style="ellipse;whiteSpace=wrap;html=1;" vertex="1" parent="1">
          <mxGeometry x="275" y="585" width="120" height="80" as="geometry" />
        </mxCell>
      </root>
    </mxGraphModel>
  </diagram>
</mxfile>
